<svg viewBox="68 160 246 80" fill="none" xmlns="http://www.w3.org/2000/svg">
<mask id="mask0_2_724" style="mask-type:luminance" maskUnits="userSpaceOnUse" x="72" y="180" width="231" height="60">
<path d="M72.8984 180H302.398V239.227H72.8984V180Z" fill="white"/>
</mask>
<g mask="url(#mask0_2_724)">
<path d="M270.023 180.027C264.266 198.496 258.496 216.973 252.734 235.445C257.484 236.926 259.84 237.738 264.523 239.492C271.332 221.375 278.129 203.262 284.938 185.145C279.012 182.922 276.027 181.902 270.023 180.027ZM264.246 236.203C260.555 234.848 258.699 234.211 254.965 233.016C255.125 232.504 255.211 232.25 255.371 231.734C259.125 232.93 260.996 233.574 264.707 234.945C264.516 235.449 264.426 235.703 264.246 236.203ZM281.34 189.793C278.223 198.262 276.656 202.496 273.539 210.965C274.922 207.043 276.863 201.113 277.855 195.887C278.863 190.613 279.176 185.863 271.238 182.312C271.207 182.297 271.176 182.277 271.148 182.258C275.777 183.734 278.078 184.527 282.656 186.215C282.129 187.637 281.871 188.352 281.344 189.773C281.344 189.785 281.34 189.793 281.34 189.793ZM283.883 192.43C277.645 208.75 274.527 216.914 268.285 233.234C271.914 234.625 273.719 235.359 277.301 236.906C284.234 220.863 287.703 212.848 294.641 196.809C290.367 194.965 288.215 194.086 283.883 192.43ZM277.184 234.418C274.371 233.215 272.953 232.637 270.109 231.535C270.254 231.156 270.332 230.969 270.473 230.594C273.332 231.703 274.754 232.281 277.578 233.484C277.414 233.859 277.336 234.047 277.184 234.418ZM291.789 200.184C289.117 206.434 287.789 209.555 285.125 215.805C286.312 212.906 287.996 208.523 288.949 204.633C289.918 200.711 290.332 197.191 284.672 194.195C284.645 194.184 284.625 194.172 284.605 194.152C287.949 195.449 289.613 196.125 292.918 197.535C292.469 198.586 292.242 199.113 291.793 200.16C291.793 200.18 291.789 200.184 291.789 200.184ZM292.172 205.438C288.016 214.926 285.941 219.676 281.785 229.164C284.301 230.262 285.547 230.832 288.035 232.008C292.465 222.645 294.68 217.961 299.109 208.594C296.348 207.289 294.957 206.66 292.172 205.438ZM288.004 230.262C286.055 229.348 285.078 228.902 283.113 228.035C283.254 227.703 283.332 227.539 283.477 227.211C285.441 228.078 286.422 228.527 288.379 229.441C288.234 229.77 288.156 229.937 288.004 230.262ZM297.125 210.816C295.18 214.973 294.203 217.051 292.258 221.207C293.125 219.277 294.367 216.363 295.121 213.758C295.875 211.137 296.258 208.789 292.625 206.641C292.613 206.633 292.602 206.621 292.586 206.609C294.742 207.562 295.82 208.051 297.957 209.055C297.633 209.758 297.465 210.102 297.141 210.805C297.125 210.809 297.125 210.816 297.125 210.816ZM296.414 216.832C294.906 219.973 294.16 221.547 292.652 224.695C294.855 225.746 295.953 226.293 298.141 227.402C299.727 224.301 300.516 222.746 302.094 219.637C299.828 218.48 298.691 217.922 296.414 216.832ZM297.977 226.094C296.309 225.246 295.473 224.832 293.789 224.027C293.918 223.762 293.977 223.629 294.105 223.371C295.797 224.184 296.633 224.598 298.309 225.441C298.172 225.695 298.109 225.832 297.977 226.094ZM90.0664 185.148C96.8711 203.262 103.672 221.375 110.477 239.496C115.152 237.738 117.512 236.93 122.266 235.449C116.5 216.969 110.738 198.496 104.969 180.027C98.9648 181.902 95.9805 182.922 90.0664 185.148ZM103.75 182.312C95.8203 185.863 96.1328 190.613 97.1328 195.887C98.1328 201.121 100.066 207.043 101.449 210.965C98.332 202.496 96.7695 198.262 93.6484 189.793C93.6484 189.793 93.6445 189.785 93.6445 189.766C93.1172 188.344 92.8594 187.629 92.332 186.207C96.9023 184.52 99.2109 183.734 103.84 182.254C103.809 182.277 103.781 182.297 103.75 182.312ZM119.621 231.742C119.785 232.254 119.871 232.508 120.031 233.023C116.297 234.211 114.441 234.852 110.75 236.211C110.562 235.711 110.473 235.457 110.289 234.949C113.996 233.582 115.867 232.937 119.621 231.742ZM80.3555 196.812C87.293 212.855 90.7617 220.871 97.6953 236.91C101.273 235.359 103.082 234.625 106.711 233.242C100.469 216.914 97.3477 208.758 91.1094 192.43C86.7773 194.086 84.6211 194.965 80.3555 196.812ZM90.3242 194.195C84.6484 197.184 85.0781 200.711 86.0469 204.633C87.0078 208.523 88.6836 212.906 89.8711 215.805C87.2031 209.555 85.8711 206.434 83.207 200.184C83.207 200.184 83.1992 200.18 83.1992 200.164C82.7539 199.113 82.5234 198.586 82.0781 197.543C85.3828 196.133 87.0469 195.449 90.3906 194.156C90.3633 194.172 90.3437 194.184 90.3242 194.195ZM104.523 230.594C104.664 230.969 104.742 231.156 104.887 231.535C102.043 232.637 100.625 233.215 97.8125 234.418C97.6562 234.047 97.5742 233.859 97.418 233.488C100.242 232.281 101.664 231.703 104.523 230.594ZM75.8867 208.594C80.3164 217.961 82.5312 222.645 86.9609 232.008C89.4492 230.832 90.6953 230.262 93.207 229.164C89.0508 219.676 86.9805 214.926 82.8242 205.438C80.0391 206.66 78.6484 207.289 75.8867 208.594ZM77.8672 210.816C77.8672 210.816 77.8672 210.809 77.8633 210.805C77.5391 210.102 77.3672 209.758 77.043 209.055C79.1875 208.051 80.2578 207.562 82.4141 206.609C82.4023 206.621 82.3906 206.629 82.375 206.641C78.7461 208.789 79.1289 211.137 79.8828 213.758C80.6367 216.363 81.8672 219.277 82.7461 221.207C80.7891 217.051 79.8164 214.973 77.8672 210.816ZM91.5117 227.211C91.6562 227.539 91.7344 227.703 91.8789 228.035C89.9141 228.898 88.9336 229.348 86.9883 230.262C86.832 229.937 86.7578 229.773 86.6055 229.449C88.5664 228.527 89.5469 228.078 91.5117 227.211ZM72.8984 219.637C74.4844 222.742 75.2773 224.293 76.8555 227.402C79.0391 226.293 80.1367 225.746 82.3438 224.695C80.8359 221.551 80.0898 219.98 78.582 216.832C76.2969 217.922 75.1602 218.48 72.8984 219.637ZM81.207 224.02C79.5234 224.832 78.6875 225.242 77.0195 226.086C76.8867 225.824 76.8242 225.695 76.6875 225.438C78.3633 224.59 79.1992 224.176 80.8867 223.363C81.0195 223.625 81.0781 223.762 81.207 224.02ZM259.664 203.238C209.898 190.574 164.453 190.633 114.711 203.418C115.59 206.336 116.031 207.789 116.906 210.699C165.145 198.297 209.215 198.242 257.484 210.523C258.359 207.609 258.797 206.148 259.664 203.238ZM256.008 209.09C208.637 197.367 165.293 197.457 117.965 209.387C117.895 209.141 117.855 209.016 117.785 208.777C165.227 196.812 208.684 196.723 256.184 208.48C256.113 208.719 256.082 208.844 256.008 209.09Z" fill="#F87E1A"/>
</g>
<path d="M255.367 231.742C259.121 232.937 260.992 233.582 264.699 234.949C264.512 235.449 264.422 235.703 264.238 236.211C260.551 234.852 258.691 234.215 254.957 233.023C255.125 232.508 255.203 232.254 255.367 231.742ZM271.246 182.312C279.176 185.863 278.863 190.613 277.863 195.887C276.863 201.121 274.93 207.043 273.547 210.965C276.664 202.496 278.227 198.262 281.344 189.793C281.344 189.793 281.352 189.785 281.352 189.766C281.879 188.344 282.137 187.629 282.664 186.207C278.09 184.52 275.785 183.734 271.156 182.254C271.18 182.277 271.215 182.297 271.246 182.312ZM270.109 231.535C272.953 232.637 274.371 233.215 277.184 234.418C277.336 234.047 277.422 233.859 277.578 233.488C274.754 232.281 273.332 231.703 270.473 230.598C270.324 230.969 270.254 231.156 270.109 231.535ZM284.605 194.152C284.625 194.164 284.652 194.184 284.672 194.195C290.332 197.191 289.918 200.711 288.949 204.633C287.988 208.523 286.312 212.906 285.125 215.805C287.793 209.555 289.125 206.434 291.789 200.184C291.789 200.184 291.793 200.18 291.793 200.164C292.242 199.113 292.469 198.586 292.918 197.543C289.613 196.125 287.949 195.449 284.605 194.152ZM283.117 228.035C285.078 228.898 286.059 229.348 288.008 230.262C288.164 229.937 288.234 229.773 288.391 229.449C286.438 228.535 285.457 228.086 283.488 227.215C283.332 227.539 283.262 227.703 283.117 228.035ZM292.25 221.207C294.199 217.051 295.172 214.973 297.121 210.816C297.121 210.816 297.121 210.809 297.125 210.805C297.453 210.102 297.621 209.758 297.945 209.055C295.809 208.051 294.73 207.562 292.574 206.609C292.586 206.621 292.602 206.629 292.613 206.641C296.242 208.789 295.859 211.137 295.105 213.758C294.359 216.355 293.121 219.277 292.25 221.207ZM294.105 223.363C293.977 223.629 293.918 223.762 293.789 224.02C295.473 224.832 296.309 225.242 297.977 226.086C298.109 225.824 298.172 225.695 298.309 225.438C296.633 224.59 295.789 224.176 294.105 223.363ZM110.289 234.949C110.477 235.449 110.57 235.703 110.75 236.211C114.441 234.852 116.297 234.211 120.031 233.023C119.871 232.508 119.785 232.254 119.621 231.742C115.867 232.937 113.996 233.582 110.289 234.949ZM97.1328 195.887C96.1328 190.613 95.8203 185.863 103.75 182.312C103.781 182.297 103.812 182.277 103.84 182.258C99.2109 183.734 96.9102 184.527 92.332 186.215C92.8594 187.637 93.1172 188.352 93.6445 189.773C93.6484 189.785 93.6484 189.801 93.6484 189.801C96.7695 198.27 98.332 202.504 101.449 210.973C100.074 207.043 98.1328 201.113 97.1328 195.887ZM97.418 233.488C97.5742 233.859 97.6562 234.047 97.8125 234.418C100.625 233.215 102.043 232.637 104.887 231.535C104.742 231.156 104.664 230.969 104.523 230.594C101.664 231.703 100.242 232.281 97.418 233.488ZM86.0391 204.633C85.0703 200.711 84.6406 197.191 90.3203 194.195C90.3438 194.184 90.3633 194.172 90.3828 194.152C87.0391 195.449 85.375 196.125 82.0703 197.535C82.5195 198.586 82.7461 199.113 83.1953 200.16C83.1992 200.172 83.1992 200.18 83.1992 200.18C85.8711 206.426 87.2031 209.551 89.8633 215.797C88.6836 212.902 87 208.523 86.0391 204.633ZM86.6094 229.441C86.7656 229.77 86.8359 229.93 86.9922 230.254C88.9414 229.34 89.9141 228.898 91.8828 228.027C91.7422 227.695 91.6641 227.535 91.5195 227.203C89.5469 228.078 88.5664 228.527 86.6094 229.441ZM82.375 206.641C82.3906 206.633 82.4023 206.621 82.4141 206.609C80.2578 207.562 79.1875 208.051 77.043 209.055C77.3672 209.758 77.5391 210.102 77.8633 210.805C77.8633 210.809 77.8672 210.816 77.8672 210.816C79.8164 214.973 80.7891 217.051 82.7383 221.207C81.8672 219.277 80.6289 216.363 79.875 213.758C79.1289 211.137 78.7461 208.789 82.375 206.641ZM76.6875 225.438C76.8164 225.695 76.8828 225.824 77.0195 226.086C78.6875 225.242 79.5234 224.824 81.207 224.02C81.0781 223.754 81.0195 223.625 80.8867 223.363C79.1992 224.176 78.3633 224.59 76.6875 225.438ZM256.184 208.48C208.691 196.723 165.234 196.812 117.785 208.777C117.855 209.023 117.895 209.148 117.965 209.387C165.293 197.457 208.637 197.367 256.008 209.09C256.082 208.844 256.113 208.719 256.184 208.48Z" fill="white"/>
<mask id="mask1_2_724" style="mask-type:luminance" maskUnits="userSpaceOnUse" x="168" y="114" width="38" height="36">
<path d="M168 114.75H206V150H168V114.75Z" fill="white"/>
</mask>
<g mask="url(#mask1_2_724)">
<path fill-rule="evenodd" clip-rule="evenodd" d="M196.164 137.066C198.559 134.898 200.73 132.727 203.094 130.523C203.41 130.203 205.422 128.254 205.422 128.254L196.676 126.852C194.504 126.531 192.746 126.277 192.523 126.18V126.148L192.492 126.18L186.746 114.75L181.027 126.148V126.18L180.996 126.246L168.227 128.191L173.016 132.855C173.43 133.238 173.813 133.652 174.227 134.035C174.578 134.387 174.93 134.77 175.281 135.121L177.008 136.719C177.07 136.781 177.102 136.812 177.164 136.844C177.355 137.004 177.453 137.066 177.422 137.453L175.41 149.969L175.855 149.746L186.68 144.062C187 143.996 190.383 145.848 193.418 147.477C195.715 148.723 197.793 149.84 198.238 150H198.27L197.57 145.273C197.441 144.605 197.312 144.027 197.25 143.645C197.152 143.008 197.027 142.305 196.898 141.602C196.609 140.23 196.355 138.824 196.258 137.676L196.164 137.066Z" fill="#F87E1A"/>
</g>
<path fill-rule="evenodd" clip-rule="evenodd" d="M164.715 140.004C166.34 138.535 167.809 137.066 169.406 135.566C169.629 135.344 171.004 134.004 171.004 134.004L165.031 133.078C163.598 132.855 162.383 132.66 162.223 132.598V132.629L158.297 124.84L154.434 132.598V132.629L154.398 132.66L145.715 134.004L148.973 137.164C149.258 137.418 149.516 137.676 149.801 137.961C150.027 138.219 150.281 138.441 150.535 138.695L151.688 139.781C151.719 139.812 151.75 139.848 151.781 139.879C151.91 139.973 151.973 140.039 151.973 140.293L150.602 148.785L150.918 148.625L158.262 144.762C158.488 144.73 160.785 145.977 162.828 147.094C164.395 147.926 165.801 148.691 166.117 148.785L165.672 145.594C165.574 145.145 165.48 144.73 165.449 144.477C165.383 144.063 165.289 143.582 165.191 143.07C165 142.176 164.84 141.219 164.777 140.422L164.715 140.004Z" fill="#F87E1A"/>
<mask id="mask2_2_724" style="mask-type:luminance" maskUnits="userSpaceOnUse" x="125" y="129" width="20" height="19">
<path d="M125.367 129H145V148H125.367V129Z" fill="white"/>
</mask>
<g mask="url(#mask2_2_724)">
<path fill-rule="evenodd" clip-rule="evenodd" d="M139.488 141.156C140.703 140.07 141.789 138.984 142.969 137.867C143.129 137.707 144.117 136.75 144.117 136.75L139.746 136.047C138.66 135.887 137.797 135.758 137.668 135.695L134.762 129.98L131.922 135.695L131.891 135.727L125.504 136.719L127.898 139.047C128.121 139.238 128.313 139.43 128.504 139.656C128.664 139.812 128.855 140.004 129.047 140.164L129.91 140.996C129.941 140.996 129.941 141.027 129.973 141.059C130.07 141.125 130.133 141.156 130.102 141.348L129.113 147.637L129.336 147.508L134.73 144.668C134.891 144.637 136.617 145.562 138.117 146.359C139.266 147 140.32 147.543 140.543 147.637L140.191 145.273C140.129 144.922 140.062 144.637 140.031 144.445C140 144.125 139.937 143.773 139.84 143.422C139.711 142.75 139.586 142.051 139.555 141.473V141.441L139.488 141.156Z" fill="#F87E1A"/>
</g>
<path fill-rule="evenodd" clip-rule="evenodd" d="M210.277 140.004C208.648 138.535 207.18 137.066 205.582 135.566C205.359 135.344 204.02 134.004 204.02 134.004L209.957 133.078C211.426 132.855 212.605 132.66 212.766 132.598L212.801 132.629L216.695 124.84L220.559 132.598L220.59 132.629V132.66L229.273 134.004L226.02 137.164C225.73 137.418 225.477 137.676 225.188 137.961C224.965 138.219 224.742 138.441 224.484 138.695L223.305 139.781C223.273 139.812 223.238 139.848 223.207 139.879C223.082 139.973 223.016 140.039 223.047 140.293L224.391 148.785L224.07 148.625L216.727 144.762C216.535 144.73 214.203 145.977 212.16 147.094C210.598 147.926 209.191 148.691 208.902 148.785H208.871L209.352 145.594C209.414 145.145 209.512 144.73 209.543 144.477C209.605 144.063 209.703 143.582 209.797 143.07C209.988 142.176 210.18 141.219 210.211 140.422L210.277 140.004Z" fill="#F87E1A"/>
<mask id="mask3_2_724" style="mask-type:luminance" maskUnits="userSpaceOnUse" x="230" y="129" width="20" height="19">
<path d="M230 129H249.867V148H230V129Z" fill="white"/>
</mask>
<g mask="url(#mask3_2_724)">
<path fill-rule="evenodd" clip-rule="evenodd" d="M235.5 141.156C234.289 140.07 233.203 138.984 232.02 137.867C231.859 137.707 230.871 136.75 230.871 136.75L235.246 136.047C236.332 135.887 237.191 135.758 237.32 135.695H237.352L240.227 129.98L243.066 135.695L243.102 135.727L249.484 136.719L247.09 139.047C246.867 139.238 246.676 139.43 246.484 139.656C246.324 139.812 246.133 140.004 245.941 140.164L245.113 140.996C245.078 140.996 245.047 141.027 245.016 141.059C244.918 141.125 244.887 141.156 244.887 141.348L245.91 147.637L245.652 147.508L240.258 144.668C240.098 144.637 238.406 145.562 236.875 146.359C235.723 147 234.703 147.543 234.48 147.637H234.445L234.797 145.273C234.863 144.922 234.926 144.637 234.957 144.445C234.988 144.125 235.086 143.773 235.148 143.422C235.277 142.75 235.406 142.051 235.438 141.473V141.441L235.5 141.156Z" fill="#F87E1A"/>
</g>
<path d="M114.553 191.81L113.459 188.732L114.865 188.232L112.084 180.482L110.678 180.982L109.584 177.904L116.568 175.404L117.662 178.497L116.553 178.888L117.381 181.185L120.724 179.982L119.896 177.685L118.787 178.091L117.693 174.997L124.678 172.513L125.771 175.591L124.365 176.091L127.146 183.841L128.553 183.341L129.646 186.419L122.662 188.919L121.568 185.841L122.678 185.435L121.787 182.966L118.443 184.169L119.334 186.638L120.443 186.247L121.537 189.325L114.553 191.81Z" fill="black"/>
<path d="M133.11 185.501L132.251 182.266L133.719 181.876L131.61 174.001L130.344 174.345L130.61 176.891L128.11 177.563L126.61 171.954L140.016 168.36L141.516 173.97L139.001 174.641L137.954 172.298L136.657 172.641L138.766 180.516L140.235 180.126L141.094 183.36L133.11 185.501Z" fill="black"/>
<path d="M152.077 181.325C150.722 181.575 149.437 181.525 148.218 181.169C146.999 180.818 145.945 180.134 145.062 179.122C144.187 178.114 143.593 176.775 143.281 175.107C143.023 173.724 143.038 172.419 143.327 171.2C143.62 169.982 144.187 168.95 145.031 168.107C145.882 167.255 147.003 166.696 148.39 166.435C149.097 166.302 149.757 166.349 150.374 166.575C150.999 166.794 151.484 167.134 151.827 167.591L151.921 166.06L154.765 165.513L155.89 171.466L152.984 172.013L152.937 171.716C152.781 170.935 152.476 170.337 152.031 169.919C151.581 169.493 151.007 169.349 150.312 169.482C149.843 169.575 149.445 169.841 149.124 170.279C148.8 170.716 148.581 171.247 148.468 171.872C148.351 172.497 148.351 173.122 148.468 173.747C148.706 174.966 149.195 175.864 149.937 176.435C150.675 177.009 151.57 177.196 152.624 176.997C153.374 176.853 154.046 176.599 154.64 176.232C155.234 175.857 155.702 175.489 156.046 175.122L156.296 175.263L157.046 179.138C156.347 179.732 155.585 180.2 154.765 180.544C153.941 180.88 153.046 181.138 152.077 181.325Z" fill="black"/>
<path d="M165.737 179.302C164.206 179.47 162.846 179.294 161.659 178.771C160.471 178.24 159.522 177.427 158.815 176.333C158.116 175.24 157.686 173.958 157.518 172.49C157.354 170.97 157.495 169.607 157.94 168.396C158.386 167.177 159.132 166.201 160.175 165.458C161.214 164.708 162.507 164.251 164.05 164.083C165.6 163.908 166.964 164.068 168.143 164.568C169.319 165.068 170.261 165.861 170.971 166.943C171.678 168.029 172.116 169.329 172.284 170.849C172.448 172.318 172.303 173.669 171.846 174.896C171.397 176.115 170.651 177.111 169.612 177.88C168.569 178.654 167.276 179.126 165.737 179.302ZM165.378 176.036C166.042 175.966 166.507 175.505 166.768 174.661C167.038 173.81 167.096 172.708 166.94 171.365C166.792 170.052 166.507 169.036 166.081 168.318C165.651 167.591 165.096 167.267 164.409 167.349C163.71 167.423 163.237 167.861 162.987 168.661C162.737 169.454 162.682 170.505 162.831 171.818C162.987 173.161 163.284 174.22 163.721 174.99C164.159 175.763 164.71 176.111 165.378 176.036Z" fill="black"/>
<path d="M173.97 178.12L173.876 174.854L175.345 174.823L177.673 166.51L175.736 166.573L175.642 163.307L184.845 163.057L188.439 174.463L189.908 174.416L190.001 177.682L181.689 177.916L181.595 174.651L182.798 174.62L182.345 173.041L179.001 173.135L178.626 174.729L180.408 174.682L180.501 177.948L173.97 178.12ZM179.423 170.87L181.845 170.807L180.642 166.323L179.423 170.87Z" fill="black"/>
<path d="M197.588 178.39C196.221 178.315 194.987 177.96 193.885 177.327C192.792 176.694 191.932 175.78 191.307 174.593C190.69 173.405 190.424 171.976 190.51 170.296C190.573 168.882 190.885 167.616 191.448 166.499C192.018 165.374 192.823 164.499 193.854 163.874C194.885 163.249 196.096 162.976 197.495 163.046C198.213 163.077 198.846 163.276 199.401 163.64C199.952 164.007 200.342 164.452 200.573 164.983L201.026 163.499L203.917 163.64L203.604 169.702L200.651 169.562L200.667 169.265C200.706 168.476 200.557 167.819 200.213 167.296C199.877 166.776 199.358 166.499 198.651 166.468C198.17 166.448 197.717 166.616 197.292 166.968C196.874 167.312 196.542 167.776 196.292 168.358C196.049 168.944 195.917 169.554 195.885 170.187C195.823 171.417 196.077 172.401 196.651 173.14C197.233 173.87 198.061 174.261 199.135 174.312C199.893 174.343 200.608 174.249 201.276 174.03C201.94 173.812 202.487 173.562 202.917 173.28L203.12 173.468L202.932 177.421C202.12 177.835 201.268 178.112 200.385 178.249C199.51 178.382 198.577 178.429 197.588 178.39Z" fill="black"/>
<path d="M204.103 178.418L204.525 175.183L205.994 175.371L207.056 167.199L205.588 167.011L206.009 163.777L213.353 164.714L212.931 167.964L211.759 167.808L211.447 170.23L214.963 170.683L215.275 168.261L214.119 168.121L214.541 164.871L221.884 165.839L221.463 169.074L219.994 168.871L218.931 177.043L220.4 177.246L219.978 180.48L212.634 179.527L213.056 176.293L214.213 176.433L214.541 173.824L211.025 173.371L210.697 175.98L211.869 176.136L211.447 179.371L204.103 178.418Z" fill="black"/>
<path d="M221.434 180.862L222.074 177.659L223.512 177.94L225.121 169.862L223.684 169.581L224.324 166.378L231.871 167.878L231.23 171.081L229.777 170.8L228.168 178.878L229.621 179.159L228.98 182.362L221.434 180.862Z" fill="black"/>
<path d="M229.985 182.48L230.86 179.261L232.313 179.652L234.438 171.745L233.016 171.355L233.875 168.214L240.469 169.995L242.625 179.667L244.063 174.355L242.625 173.964L243.469 170.823L249.172 172.37L248.329 175.511L246.922 175.136L243.922 186.245L238.5 184.777L236.391 175.761L235.141 180.417L236.563 180.792L235.688 184.011L229.985 182.48Z" fill="black"/>
<path d="M253.57 189.881C252.164 189.369 250.965 188.639 249.976 187.694C248.996 186.744 248.355 185.596 248.054 184.241C247.75 182.877 247.906 181.35 248.523 179.662C249 178.33 249.711 177.237 250.648 176.381C251.586 175.518 252.683 174.975 253.945 174.756C255.215 174.53 256.57 174.674 258.008 175.194C258.609 175.412 259.164 175.733 259.664 176.147C260.164 176.553 260.512 177.014 260.711 177.522L261.32 176.694L264.336 177.787L262.492 182.912L259.789 181.928C259.871 181.139 259.726 180.467 259.351 179.912C258.976 179.35 258.508 178.967 257.945 178.756C257.015 178.424 256.156 178.502 255.367 178.991C254.586 179.471 253.98 180.303 253.554 181.491C253.117 182.701 253.039 183.741 253.32 184.616C253.609 185.491 254.246 186.108 255.226 186.459C255.465 186.545 255.719 186.608 255.992 186.647C256.262 186.686 256.484 186.709 256.664 186.709C256.84 186.717 256.953 186.729 257.008 186.741L257.461 185.506L255.789 184.897L256.711 182.303L262.289 184.319L260.039 190.553C258.984 190.709 257.898 190.725 256.773 190.6C255.656 190.483 254.59 190.244 253.57 189.881Z" fill="black"/>
<path d="M130.467 226.674L135.623 232.674V225.768H136.373V235.721H135.686L129.326 228.253V235.674H128.576V227.581C128.576 227.198 128.483 226.874 128.295 226.612C128.115 226.354 127.764 226.221 127.233 226.221H127.154V225.768H128.201C128.772 225.768 129.236 225.846 129.592 226.003C129.943 226.151 130.236 226.374 130.467 226.674Z" fill="black"/>
<path d="M145.862 230.721C145.862 229.264 145.612 228.139 145.112 227.346C144.612 226.546 143.902 226.143 142.987 226.143C142.081 226.143 141.378 226.546 140.878 227.346C140.386 228.139 140.144 229.264 140.144 230.721C140.144 232.182 140.386 233.311 140.878 234.112C141.378 234.905 142.081 235.299 142.987 235.299C143.902 235.299 144.612 234.905 145.112 234.112C145.612 233.311 145.862 232.182 145.862 230.721ZM138.05 230.721C138.05 229.733 138.253 228.842 138.659 228.049C139.066 227.26 139.636 226.635 140.378 226.174C141.128 225.706 141.995 225.471 142.987 225.471C143.987 225.471 144.851 225.706 145.581 226.174C146.32 226.635 146.894 227.26 147.3 228.049C147.714 228.842 147.925 229.733 147.925 230.721C147.925 231.714 147.714 232.604 147.3 233.393C146.894 234.186 146.32 234.815 145.581 235.284C144.851 235.741 143.987 235.971 142.987 235.971C141.995 235.971 141.128 235.741 140.378 235.284C139.636 234.815 139.066 234.186 138.659 233.393C138.253 232.604 138.05 231.714 138.05 230.721Z" fill="black"/>
<path d="M156.576 226.378C156.42 226.378 156.256 226.389 156.092 226.409C155.924 226.432 155.764 226.456 155.607 226.487V231.065H156.514C156.846 231.065 157.17 230.999 157.482 230.862C157.795 230.729 158.045 230.495 158.232 230.159C158.428 229.815 158.529 229.339 158.529 228.721C158.529 228.096 158.428 227.62 158.232 227.284C158.045 226.952 157.799 226.717 157.498 226.581C157.205 226.448 156.897 226.378 156.576 226.378ZM152.451 225.768H156.576C156.846 225.768 157.158 225.792 157.514 225.831C157.865 225.862 158.225 225.936 158.592 226.049C158.955 226.155 159.287 226.315 159.592 226.534C159.904 226.753 160.154 227.049 160.342 227.424C160.537 227.792 160.639 228.245 160.639 228.784C160.639 229.307 160.537 229.745 160.342 230.096C160.154 230.44 159.908 230.717 159.607 230.924C159.315 231.135 159.002 231.296 158.67 231.409C158.346 231.514 158.033 231.589 157.732 231.628C157.44 231.659 157.205 231.674 157.029 231.674H155.607V235.674H153.654V227.721C153.654 227.276 153.592 226.917 153.467 226.643C153.342 226.362 153.053 226.221 152.607 226.221H152.451V225.768Z" fill="black"/>
<path d="M166.106 225.768L169.466 233.784C169.641 234.221 169.86 234.573 170.122 234.831C170.38 235.092 170.684 235.245 171.028 235.284V235.659C170.942 235.678 170.829 235.694 170.684 235.706C170.536 235.725 170.411 235.737 170.309 235.737C169.973 235.737 169.626 235.694 169.263 235.612C168.895 235.53 168.548 235.346 168.216 235.065C167.88 234.784 167.595 234.358 167.356 233.784L167.013 232.94H163.013L161.794 235.674H161.013L165.434 225.768H166.106ZM165.075 228.362L163.325 232.268H166.716L165.075 228.362Z" fill="black"/>
<path d="M171.78 233.721V225.768H173.733V233.721C173.733 234.171 173.796 234.534 173.921 234.815C174.046 235.089 174.331 235.221 174.78 235.221H174.921V235.674H173.124C172.6 235.674 172.249 235.542 172.061 235.268C171.874 234.999 171.78 234.483 171.78 233.721Z" fill="black"/>
<path d="M178.512 226.674L183.668 232.674V225.768H184.418V235.721H183.731L177.371 228.253V235.674H176.621V227.581C176.621 227.198 176.527 226.874 176.34 226.612C176.16 226.354 175.809 226.221 175.277 226.221H175.199V225.768H176.246C176.817 225.768 177.281 225.846 177.637 226.003C177.988 226.151 178.281 226.374 178.512 226.674Z" fill="black"/>
<path d="M192.642 226.674L197.798 232.674V225.768H198.548V235.721H197.861L191.501 228.253V235.674H190.751V227.581C190.751 227.198 190.657 226.874 190.47 226.612C190.29 226.354 189.939 226.221 189.407 226.221H189.329V225.768H190.376C190.947 225.768 191.411 225.846 191.767 226.003C192.118 226.151 192.411 226.374 192.642 226.674Z" fill="black"/>
<path d="M208.037 230.721C208.037 229.264 207.787 228.139 207.287 227.346C206.787 226.546 206.077 226.143 205.162 226.143C204.256 226.143 203.553 226.546 203.053 227.346C202.561 228.139 202.319 229.264 202.319 230.721C202.319 232.182 202.561 233.311 203.053 234.112C203.553 234.905 204.256 235.299 205.162 235.299C206.077 235.299 206.787 234.905 207.287 234.112C207.787 233.311 208.037 232.182 208.037 230.721ZM200.225 230.721C200.225 229.733 200.428 228.842 200.834 228.049C201.241 227.26 201.811 226.635 202.553 226.174C203.303 225.706 204.17 225.471 205.162 225.471C206.162 225.471 207.026 225.706 207.756 226.174C208.494 226.635 209.069 227.26 209.475 228.049C209.889 228.842 210.1 229.733 210.1 230.721C210.1 231.714 209.889 232.604 209.475 233.393C209.069 234.186 208.494 234.815 207.756 235.284C207.026 235.741 206.162 235.971 205.162 235.971C204.17 235.971 203.303 235.741 202.553 235.284C201.811 234.815 201.241 234.186 200.834 233.393C200.428 232.604 200.225 231.714 200.225 230.721Z" fill="black"/>
<path d="M224.314 232.284V234.971C223.728 235.315 223.111 235.565 222.454 235.721C221.806 235.885 221.099 235.971 220.329 235.971C219.548 235.971 218.829 235.835 218.173 235.565C217.525 235.284 216.958 234.901 216.47 234.409C215.978 233.921 215.599 233.354 215.329 232.706C215.068 232.049 214.939 231.342 214.939 230.581C214.939 229.612 215.142 228.749 215.548 227.987C215.954 227.217 216.525 226.608 217.267 226.159C218.017 225.702 218.884 225.471 219.876 225.471C220.822 225.471 221.595 225.596 222.189 225.846C222.79 226.089 223.236 226.37 223.517 226.69C223.712 226.94 223.829 227.268 223.861 227.674C223.892 228.073 223.907 228.436 223.907 228.768H223.454C223.267 227.854 222.915 227.186 222.407 226.768C221.896 226.354 221.204 226.143 220.329 226.143C219.736 226.143 219.228 226.264 218.814 226.503C218.396 226.745 218.052 227.077 217.782 227.503C217.521 227.921 217.329 228.393 217.204 228.924C217.087 229.456 217.032 230.01 217.032 230.581C217.032 231.792 217.177 232.745 217.47 233.44C217.771 234.139 218.173 234.639 218.673 234.94C219.173 235.233 219.724 235.378 220.329 235.378C220.775 235.378 221.161 235.342 221.486 235.268C221.806 235.198 222.099 235.104 222.361 234.987V232.315C222.361 232.108 222.392 231.901 222.454 231.69C222.517 231.471 222.646 231.276 222.845 231.096C223.052 230.909 223.349 230.764 223.736 230.659C224.118 230.546 224.63 230.487 225.267 230.487V230.862C224.923 230.862 224.677 230.987 224.532 231.237C224.384 231.487 224.314 231.839 224.314 232.284Z" fill="black"/>
<path d="M230.636 225.768L233.996 233.784C234.171 234.221 234.39 234.573 234.652 234.831C234.91 235.092 235.214 235.245 235.558 235.284V235.659C235.472 235.678 235.359 235.694 235.214 235.706C235.066 235.725 234.941 235.737 234.839 235.737C234.503 235.737 234.156 235.694 233.792 235.612C233.425 235.53 233.078 235.346 232.746 235.065C232.41 234.784 232.124 234.358 231.886 233.784L231.542 232.94H227.542L226.324 235.674H225.542L229.964 225.768H230.636ZM229.605 228.362L227.855 232.268H231.246L229.605 228.362Z" fill="black"/>
<path d="M236.31 233.721V225.768H238.263V233.721C238.263 234.171 238.326 234.534 238.451 234.815C238.576 235.089 238.861 235.221 239.31 235.221H239.451V235.674H237.654C237.13 235.674 236.779 235.542 236.591 235.268C236.404 234.999 236.31 234.483 236.31 233.721Z" fill="black"/>
<path d="M243.042 226.674L248.198 232.674V225.768H248.948V235.721H248.261L241.901 228.253V235.674H241.151V227.581C241.151 227.198 241.057 226.874 240.87 226.612C240.69 226.354 240.339 226.221 239.807 226.221H239.729V225.768H240.776C241.346 225.768 241.811 225.846 242.167 226.003C242.518 226.151 242.811 226.374 243.042 226.674Z" fill="black"/>
</svg>
