<svg xmlns="http://www.w3.org/2000/svg" viewBox="0 0 1398.1000000000001 224" role="img" aria-label="HT Coaching wordmark">
<title>HT Coaching wordmark</title>
<path d="M1413 1457V0H1073V616H481V0H141V1457H481V848H1073V1457Z" fill="#FF5A00" transform="translate(8.000,205.000) scale(0.100000,-0.100000)"/><path d="M1188 1189H778V0H440V1189H30V1457H1188Z" fill="#FF5A00" transform="translate(161.400,205.000) scale(0.100000,-0.100000)"/><path d="M1123 377Q1135 377 1147.0 372.5Q1159 368 1170 357L1304 216Q1216 101 1083.5 42.5Q951 -16 770 -16Q604 -16 472.5 40.5Q341 97 249.5 196.5Q158 296 109.0 432.5Q60 569 60 729Q60 892 113.0 1028.5Q166 1165 262.0 1264.0Q358 1363 492.0 1418.0Q626 1473 787 1473Q869 1473 941.5 1458.5Q1014 1444 1077.0 1418.5Q1140 1393 1193.0 1357.0Q1246 1321 1287 1279L1173 1126Q1162 1112 1147.0 1100.5Q1132 1089 1105 1089Q1087 1089 1071.0 1097.0Q1055 1105 1037.0 1116.5Q1019 1128 997.5 1141.5Q976 1155 946.5 1166.5Q917 1178 877.5 1186.0Q838 1194 785 1194Q701 1194 631.5 1163.0Q562 1132 511.5 1072.5Q461 1013 433.5 926.5Q406 840 406 729Q406 617 436.5 530.0Q467 443 519.5 383.5Q572 324 642.0 293.0Q712 262 792 262Q838 262 876.0 266.5Q914 271 947.0 281.5Q980 292 1009.0 309.5Q1038 327 1068 354Q1080 364 1094.0 370.5Q1108 377 1123 377Z" fill="#111111" transform="translate(301.200,205.000) scale(0.100000,-0.100000)"/><path d="M 440.30000000000007,128 a 76,76 0 1,0 152,0 a 76,76 0 1,0 -152,0 M 489.70000000000005,128 a 26.599999999999998,26.599999999999998 0 1,1 53.199999999999996,0 a 26.599999999999998,26.599999999999998 0 1,1 -53.199999999999996,0" fill="#111111" fill-rule="evenodd"/><path d="M 462.71,113.64 A 55.48,55.48 0 0,1 521.14,72.73" fill="none" stroke="#FF5A00" stroke-width="9.88" stroke-linecap="butt"/><path d="M 569.89,142.36 A 55.48,55.48 0 0,1 511.46,183.27" fill="none" stroke="#FF5A00" stroke-width="9.88" stroke-linecap="butt"/><path d="M911 557 776 956Q761 994 744.0 1045.5Q727 1097 710 1157Q695 1096 678.0 1044.0Q661 992 646 954L512 557ZM1448 0H1186Q1142 0 1115.0 20.5Q1088 41 1074 73L988 327H434L348 73Q337 45 308.5 22.5Q280 0 238 0H-26L538 1457H884Z" fill="#111111" transform="translate(604.300,205.000) scale(0.100000,-0.100000)"/><path d="M1123 377Q1135 377 1147.0 372.5Q1159 368 1170 357L1304 216Q1216 101 1083.5 42.5Q951 -16 770 -16Q604 -16 472.5 40.5Q341 97 249.5 196.5Q158 296 109.0 432.5Q60 569 60 729Q60 892 113.0 1028.5Q166 1165 262.0 1264.0Q358 1363 492.0 1418.0Q626 1473 787 1473Q869 1473 941.5 1458.5Q1014 1444 1077.0 1418.5Q1140 1393 1193.0 1357.0Q1246 1321 1287 1279L1173 1126Q1162 1112 1147.0 1100.5Q1132 1089 1105 1089Q1087 1089 1071.0 1097.0Q1055 1105 1037.0 1116.5Q1019 1128 997.5 1141.5Q976 1155 946.5 1166.5Q917 1178 877.5 1186.0Q838 1194 785 1194Q701 1194 631.5 1163.0Q562 1132 511.5 1072.5Q461 1013 433.5 926.5Q406 840 406 729Q406 617 436.5 530.0Q467 443 519.5 383.5Q572 324 642.0 293.0Q712 262 792 262Q838 262 876.0 266.5Q914 271 947.0 281.5Q980 292 1009.0 309.5Q1038 327 1068 354Q1080 364 1094.0 370.5Q1108 377 1123 377Z" fill="#111111" transform="translate(745.500,205.000) scale(0.100000,-0.100000)"/><path d="M1413 1457V0H1073V616H481V0H141V1457H481V848H1073V1457Z" fill="#111111" transform="translate(875.600,205.000) scale(0.100000,-0.100000)"/><path d="M481 0H141V1457H481Z" fill="#111111" transform="translate(1030.000,205.000) scale(0.100000,-0.100000)"/><path d="M1413 1457V0H1237Q1198 0 1171.5 12.5Q1145 25 1119 56L432 925Q436 886 437.5 849.5Q439 813 439 781V0H141V1457H319Q341 1457 356.0 1455.0Q371 1453 383.0 1447.5Q395 1442 406.0 1432.0Q417 1422 431 1405L1124 530Q1119 572 1117.0 611.5Q1115 651 1115 686V1457Z" fill="#111111" transform="translate(1091.200,205.000) scale(0.100000,-0.100000)"/><path d="M841 755H1359V140Q1247 58 1120.5 21.0Q994 -16 856 -16Q676 -16 528.5 40.5Q381 97 276.0 196.5Q171 296 114.0 432.5Q57 569 57 729Q57 892 111.0 1028.5Q165 1165 265.5 1264.0Q366 1363 508.5 1418.0Q651 1473 827 1473Q918 1473 998.0 1458.0Q1078 1443 1145.5 1417.0Q1213 1391 1269.0 1355.0Q1325 1319 1369 1277L1271 1128Q1248 1093 1211.5 1085.0Q1175 1077 1133 1103Q1093 1127 1057.5 1144.5Q1022 1162 985.0 1173.0Q948 1184 907.0 1189.0Q866 1194 815 1194Q720 1194 644.0 1160.5Q568 1127 514.5 1066.0Q461 1005 432.0 919.5Q403 834 403 729Q403 613 435.0 523.0Q467 433 525.5 371.0Q584 309 665.5 276.5Q747 244 846 244Q907 244 956.5 256.0Q1006 268 1053 288V509H909Q877 509 859.0 526.0Q841 543 841 569Z" fill="#111111" transform="translate(1245.600,205.000) scale(0.100000,-0.100000)"/>
</svg>
